<svg class="marker-shadow" viewBox="0 0 32 40" version="1.1" xmlns="http://www.w3.org/2000/svg" xmlns:xlink="http://www.w3.org/1999/xlink" xml:space="preserve" x="0" y="0" width="32" height="40"><defs><linearGradient id="grad" x1="50%" y1="0%" x2="50%" y2="100%"><stop stop-color="#b10011" stop-opacity="1" offset="25%"/><stop stop-color="#6a000a" stop-opacity="1" offset="100%"/></linearGradient></defs><path d="M 15.9999 0 C 7.1631 0 0 7.1397 0 15.9463 C 0 17.3282 0.1758 18.6692 0.5078 19.947 C 0.8141 21.1292 1.2587 22.2557 1.8116 23.3155 C 4.3216 28.1251 15.9999 40 15.9999 40 C 15.9999 40 27.6973 27.8427 30.1877 23.3155 C 30.7633 22.2677 31.1853 21.1292 31.4915 19.947 C 31.8229 18.6692 32 17.3282 32 15.9463 C 32 7.1397 24.8362 0 15.9999 0 Z" fill="url(#grad)"/><circle cx="16" cy="16" r="10" stroke="#dbdbea" stroke-width="2" fill="#fafafa"/></svg>